<?xml version="1.0" encoding="UTF-8"?>
<svg xmlns="http://www.w3.org/2000/svg" version="1.1" viewBox="0 0 2796 1290">
  <defs>
    <style>
      .cls-1 {
        fill: #fff;
      }

      .cls-2 {
        fill: #fee000;
        fill-rule: evenodd;
      }
    </style>
  </defs>
  <!-- Generator: Adobe Illustrator 28.6.0, SVG Export Plug-In . SVG Version: 1.2.0 Build 709)  -->
  <g>
    <g id="Layer_1">
      <path class="cls-2" d="M177.48,396.23c-37.36,0-67.65,30.04-67.65,67.1v353.37c0,37.06,30.29,67.1,67.65,67.1h568.24c37.36,0,67.65-30.04,67.65-67.1v-353.37c0-37.06-30.29-67.1-67.65-67.1H177.48ZM338.04,766.6c1.2-5.96,1.8-10.73,1.8-14.31v-223.2c0-3.28-.6-7.9-1.8-13.87-1.2-6.26-4.36-12.38-9.47-18.34-5.11-5.96-12.78-11.03-23-15.21-10.22-4.47-24.35-6.71-42.39-6.71s-32.17,2.24-42.39,6.71c-10.22,4.17-17.89,9.24-23,15.21-5.11,5.96-8.27,12.08-9.47,18.34-1.2,5.96-1.8,10.59-1.8,13.87v223.2c0,3.28.6,8.05,1.8,14.31,1.2,5.96,4.36,11.93,9.47,17.89s12.78,11.18,23,15.66c10.22,4.17,24.35,6.26,42.39,6.26s32.17-2.09,42.39-6.26c10.22-4.47,17.89-9.69,23-15.66,5.11-5.96,8.27-11.93,9.47-17.89ZM538.28,752.29c0,3.58-.6,8.35-1.8,14.31-1.2,5.96-4.36,11.93-9.47,17.89-5.11,5.96-12.78,11.18-23,15.66-10.22,4.17-24.35,6.26-42.39,6.26s-32.17-2.09-42.39-6.26c-10.22-4.47-17.89-9.69-23-15.66-5.11-5.96-8.27-11.93-9.47-17.89-1.2-6.26-1.8-11.03-1.8-14.31v-223.2c0-3.28.6-7.9,1.8-13.87,1.2-6.26,4.36-12.38,9.47-18.34,5.11-5.96,12.78-11.03,23-15.21,10.22-4.47,24.35-6.71,42.39-6.71s32.17,2.24,42.39,6.71c10.22,4.17,17.89,9.24,23,15.21,5.11,5.96,8.27,12.08,9.47,18.34,1.2,5.96,1.8,10.59,1.8,13.87v223.2ZM734.91,766.6c1.2-6.26,1.8-11.03,1.8-14.31v-222.76c0-3.28-.6-7.9-1.8-13.87-1.2-6.26-4.36-12.38-9.47-18.34-5.11-5.96-12.78-11.18-23-15.66-10.22-4.47-24.36-6.71-42.39-6.71s-32.17,2.24-42.39,6.71c-10.22,4.17-17.89,9.24-23,15.21-5.11,5.96-8.27,12.08-9.47,18.34-1.2,5.96-1.8,10.74-1.8,14.31v114.06c0,11.03,3.46,21.32,10.37,30.86,6.92,9.54,18.94,16.7,36.08,21.47,1.2.6,2.1.89,2.71.89,5.41,2.09,11.12,4.17,17.14,6.26,6.01,2.09,11.42,3.88,16.24,5.37,2.1.6,4.51,1.49,7.21,2.68,3.01.89,5.42,1.64,7.22,2.24,7.82,2.68,12.78,6.41,14.88,11.18,2.11,4.77,3.15,9.1,3.15,12.97v7.6c0,2.68-.45,5.67-1.35,8.95-.6,2.98-2.25,5.96-4.96,8.95-2.4,2.68-6.16,5.07-11.27,7.16-4.81,1.79-11.42,2.68-19.84,2.68s-15.34-.89-20.75-2.68c-5.11-2.09-9.17-4.47-12.18-7.16-2.71-2.68-4.51-5.52-5.41-8.5-.9-3.28-1.35-6.11-1.35-8.5h0c0-2.72-2.2-4.92-4.92-4.92h-31.89c-.59,0-1.07.48-1.07,1.07v10.11c0,3.58.6,8.35,1.8,14.31,1.2,5.96,4.36,11.93,9.47,17.89,5.11,5.96,12.78,11.18,23,15.66,10.22,4.17,24.35,6.26,42.39,6.26s32.17-2.09,42.39-6.26c10.22-4.47,17.89-9.69,23-15.66s8.27-11.93,9.47-17.89Z"/>
      <path class="cls-1" d="M1081.07,668.53h112.26v66.23c0,7.99-6.58,14.09-14.09,14.09h-175.2c-7.52,0-13.62-6.11-13.62-14.09v-188.83c0-7.99,6.11-14.09,13.62-14.09h234.39v-55.9h-244.72c-34.76,0-62.94,28.18-62.94,62.94v202.92c0,34.76,28.18,62.94,62.94,62.94h195.87c34.76,0,62.94-28.18,62.94-62.94v-129.64h-171.45v56.37ZM1569.91,687.79c34.76,0,62.94-28.18,62.94-63.41v-85.49c0-34.76-28.18-62.94-62.94-62.94h-258.81v328.8h59.65v-116.96h108.03l98.17,116.96h69.99l-98.17-116.96h21.14ZM1370.75,631.42v-99.58h188.83c7.52,0,14.09,6.11,14.09,14.09v71.87c0,7.52-6.58,13.62-14.09,13.62h-188.83ZM1951.95,475.95h-195.87c-34.76,0-62.94,28.18-62.94,62.94v202.92c0,34.76,28.18,62.94,62.94,62.94h195.87c34.76,0,62.94-28.18,62.94-62.94v-202.92c0-34.76-28.18-62.94-62.94-62.94ZM1955.7,734.76c0,7.99-6.58,14.09-14.09,14.09h-175.2c-7.52,0-13.62-6.11-13.62-14.09v-188.83c0-7.99,6.11-14.09,13.62-14.09h175.2c7.52,0,14.09,6.11,14.09,14.09v188.83ZM2339.67,734.76c0,7.99-6.58,14.09-14.09,14.09h-175.2c-7.52,0-13.62-6.11-13.62-14.09v-258.81h-59.65v265.86c0,34.76,28.18,62.94,62.94,62.94h195.87c34.76,0,62.94-28.18,62.94-62.94v-265.86h-59.18v258.81ZM2708.54,475.95h-244.72v328.8h59.65v-116.96h185.07c34.76,0,62.94-28.18,62.94-63.41v-85.49c0-34.76-28.18-62.94-62.94-62.94ZM2712.3,617.8c0,7.52-6.58,13.62-14.09,13.62h-174.73v-99.58h174.73c7.52,0,14.09,6.11,14.09,14.09v71.87Z"/>
    </g>
  </g>
</svg>