<svg width="16" height="16" viewBox="0 0 16 16" fill="none" xmlns="http://www.w3.org/2000/svg">
    <path fill-rule="evenodd" clip-rule="evenodd"
          d="M7.99967 1.83203C4.59392 1.83203 1.83301 4.59294 1.83301 7.9987C1.83301 11.4045 4.59392 14.1654 7.99967 14.1654C11.4054 14.1654 14.1663 11.4045 14.1663 7.9987C14.1663 4.59294 11.4054 1.83203 7.99967 1.83203ZM0.833008 7.9987C0.833008 4.04066 4.04163 0.832031 7.99967 0.832031C11.9577 0.832031 15.1663 4.04066 15.1663 7.9987C15.1663 11.9567 11.9577 15.1654 7.99967 15.1654C4.04163 15.1654 0.833008 11.9567 0.833008 7.9987Z"
          fill="#FFFFFF"/>
    <path fill-rule="evenodd" clip-rule="evenodd"
          d="M1.5 6C1.5 5.72386 1.72386 5.5 2 5.5H14C14.2761 5.5 14.5 5.72386 14.5 6C14.5 6.27614 14.2761 6.5 14 6.5H2C1.72386 6.5 1.5 6.27614 1.5 6Z"
          fill="#FFFFFF"/>
    <path fill-rule="evenodd" clip-rule="evenodd"
          d="M1.5 10C1.5 9.72386 1.72386 9.5 2 9.5H14C14.2761 9.5 14.5 9.72386 14.5 10C14.5 10.2761 14.2761 10.5 14 10.5H2C1.72386 10.5 1.5 10.2761 1.5 10Z"
          fill="#FFFFFF"/>
    <path fill-rule="evenodd" clip-rule="evenodd"
          d="M7.06636 1.77907C7.51628 1.12051 8.4832 1.12052 8.9331 1.77909C10.3996 3.92574 11.1663 5.94544 11.1663 8.00016C11.1663 10.0549 10.3996 12.0746 8.9331 14.2212C8.4832 14.8798 7.51628 14.8798 7.06636 14.2213C5.59977 12.0746 4.833 10.0549 4.83301 8.00016C4.83302 5.94543 5.5998 3.92572 7.06636 1.77907ZM8.10739 2.34318C8.05454 2.26582 7.94491 2.26581 7.89206 2.34318C6.49705 4.3851 5.83301 6.21014 5.83301 8.00017C5.833 9.79018 6.49702 11.6152 7.89205 13.6571C7.94491 13.7345 8.05453 13.7345 8.10738 13.6571C9.50232 11.6152 10.1663 9.79018 10.1663 8.00016C10.1663 6.21014 9.50232 4.38509 8.10739 2.34318Z"
          fill="#FFFFFF"/>
</svg>
