<svg width="73" height="73" viewBox="0 0 73 73" fill="none" xmlns="http://www.w3.org/2000/svg">
    <path d="M2.54146 19.4589C2.54202 10.1143 10.1178 2.53952 19.4623 2.54008L53.2923 2.54212C62.6369 2.54268 70.2117 10.1184 70.2111 19.463L70.2091 53.293C70.2085 62.6375 62.6328 70.2123 53.2882 70.2118L19.4583 70.2097C10.1137 70.2092 2.53886 62.6334 2.53942 53.2889L2.54146 19.4589Z"
          fill="#FEE000"/>
    <path fill-rule="evenodd" clip-rule="evenodd"
          d="M0.00322212 19.4578C0.00386962 8.71156 8.71597 0.000524907 19.4622 0.00117241L53.2922 0.0032108C64.0385 0.00385831 72.7495 8.71596 72.7488 19.4622L72.7468 53.2922C72.7462 64.0384 64.0341 72.7495 53.2878 72.7488L19.4578 72.7468C8.71157 72.7461 0.000536222 64.034 0.00118373 53.2878L0.00322212 19.4578ZM19.4619 5.07713C11.519 5.07665 5.07966 11.5152 5.07918 19.4581L5.07714 53.2881C5.07666 61.231 11.5153 67.6704 19.4581 67.6708L53.2881 67.6729C61.231 67.6734 67.6704 61.2348 67.6708 53.2919L67.6729 19.4619C67.6734 11.519 61.2348 5.07965 53.2919 5.07917L19.4619 5.07713Z"
          fill="#FEE000"/>
    <path fill-rule="evenodd" clip-rule="evenodd"
          d="M49.9837 24.6796C51.1051 25.5206 51.3323 27.1114 50.4913 28.2328L36.2483 47.2235C35.1343 48.7087 32.926 48.7653 31.7375 47.3391L22.3449 36.068C21.4476 34.9912 21.5931 33.3908 22.6699 32.4935C23.7467 31.5961 25.347 31.7416 26.2444 32.8184L33.8563 41.9528L46.4305 25.1872C47.2716 24.0659 48.8624 23.8386 49.9837 24.6796Z"
          fill="white"/>
</svg>
